<svg width="175" height="36" viewBox="0 0 175 36" fill="none" xmlns="http://www.w3.org/2000/svg">
<path d="M14.52 5.8C12.2 5.8 10.2533 6.61333 8.68 8.24C7.13333 9.86667 6.36 11.8667 6.36 14.24C6.36 16.6667 7.14667 18.6933 8.72 20.32C10.32 21.9467 12.32 22.76 14.72 22.76C17.9733 22.76 20.4667 21.28 22.2 18.32L27.04 21.68C24.24 26.2667 20.16 28.56 14.8 28.56C10.5867 28.56 7.06667 27.1867 4.24 24.44C1.44 21.6667 0.04 18.2667 0.04 14.24C0.04 10.24 1.44 6.88 4.24 4.16C7.04 1.41333 10.5067 0.0399976 14.64 0.0399976C20.24 0.0399976 24.3333 2.32 26.92 6.88L22 10.28C20.1867 7.29333 17.6933 5.8 14.52 5.8ZM39.35 12.32C37.83 12.32 36.55 12.8667 35.51 13.96C34.47 15.0267 33.95 16.32 33.95 17.84C33.95 19.3867 34.47 20.6933 35.51 21.76C36.55 22.8267 37.83 23.36 39.35 23.36C40.95 23.36 42.2833 22.8267 43.35 21.76C44.4167 20.6933 44.95 19.3867 44.95 17.84C44.95 16.32 44.4033 15.0267 43.31 13.96C42.2167 12.8667 40.8967 12.32 39.35 12.32ZM44.87 28V26.48C43.3233 27.68 41.3233 28.28 38.87 28.28C36.0433 28.28 33.6033 27.28 31.55 25.28C29.5233 23.2533 28.51 20.7733 28.51 17.84C28.51 14.9067 29.5233 12.4133 31.55 10.36C33.6033 8.30667 36.0433 7.28 38.87 7.28C41.2967 7.28 43.2967 7.89333 44.87 9.12V7.48H50.43V28H44.87ZM58.2591 28H52.6591V7.48H58.2191V10.28C59.7124 8.22667 61.6991 7.2 64.1791 7.2V12.8C62.2057 12.8 60.7257 13.32 59.7391 14.36C58.7524 15.3733 58.2591 16.8 58.2591 18.64V28ZM65.2688 21.56H70.9088C70.9088 22.3067 71.2021 22.96 71.7888 23.52C72.4021 24.0533 73.3754 24.3333 74.7088 24.36C75.6954 24.36 76.4421 24.1733 76.9488 23.8C77.4821 23.4267 77.7488 22.9733 77.7488 22.44C77.7488 21.88 77.4421 21.4533 76.8288 21.16C76.2421 20.84 75.4954 20.64 74.5888 20.56C73.7088 20.4533 72.7354 20.28 71.6688 20.04C70.6288 19.8 69.6554 19.5067 68.7488 19.16C67.8688 18.7867 67.1221 18.16 66.5088 17.28C65.9221 16.3733 65.6288 15.24 65.6288 13.88C65.6288 11.9867 66.4021 10.4133 67.9488 9.16C69.4954 7.88 71.5488 7.24 74.1088 7.24C76.6954 7.24 78.7621 7.85333 80.3088 9.08C81.8821 10.3067 82.7488 11.96 82.9088 14.04H77.3488C77.2954 13.2133 77.0421 12.5733 76.5888 12.12C76.1354 11.6667 75.3354 11.44 74.1888 11.44C72.2421 11.44 71.2688 12.04 71.2688 13.24C71.2688 13.9067 71.6954 14.4133 72.5488 14.76C73.4021 15.08 74.4288 15.3333 75.6288 15.52C76.8554 15.7067 78.0688 15.96 79.2688 16.28C80.4954 16.5733 81.5354 17.16 82.3888 18.04C83.2421 18.8933 83.6688 20.04 83.6688 21.48C83.6688 23.8 82.8154 25.5333 81.1088 26.68C79.4021 27.8267 77.1754 28.4 74.4288 28.4C71.6821 28.4 69.4821 27.76 67.8288 26.48C66.1754 25.2 65.3221 23.56 65.2688 21.56ZM96.5516 12.32C94.9516 12.32 93.6182 12.8533 92.5516 13.92C91.4849 14.9867 90.9516 16.2933 90.9516 17.84C90.9516 19.36 91.4982 20.6667 92.5916 21.76C93.6849 22.8267 95.0049 23.36 96.5516 23.36C98.0716 23.36 99.3516 22.8267 100.392 21.76C101.432 20.6667 101.952 19.36 101.952 17.84C101.952 16.2933 101.432 14.9867 100.392 13.92C99.3516 12.8533 98.0716 12.32 96.5516 12.32ZM97.0316 28.28C94.6049 28.28 92.6049 27.6667 91.0316 26.44V35.04H85.4716V7.48H91.0316V9.08C92.5782 7.88 94.5782 7.28 97.0316 7.28C99.8582 7.28 102.285 8.29333 104.312 10.32C106.365 12.32 107.392 14.7867 107.392 17.72C107.392 20.6533 106.365 23.1467 104.312 25.2C102.285 27.2533 99.8582 28.28 97.0316 28.28ZM119.741 12.32C118.221 12.32 116.941 12.8667 115.901 13.96C114.861 15.0267 114.341 16.32 114.341 17.84C114.341 19.3867 114.861 20.6933 115.901 21.76C116.941 22.8267 118.221 23.36 119.741 23.36C121.341 23.36 122.674 22.8267 123.741 21.76C124.807 20.6933 125.341 19.3867 125.341 17.84C125.341 16.32 124.794 15.0267 123.701 13.96C122.607 12.8667 121.287 12.32 119.741 12.32ZM125.261 28V26.48C123.714 27.68 121.714 28.28 119.261 28.28C116.434 28.28 113.994 27.28 111.941 25.28C109.914 23.2533 108.901 20.7733 108.901 17.84C108.901 14.9067 109.914 12.4133 111.941 10.36C113.994 8.30667 116.434 7.28 119.261 7.28C121.687 7.28 123.687 7.89333 125.261 9.12V7.48H130.821V28H125.261ZM148.77 20.48L153.09 23.24C150.93 26.7333 147.743 28.48 143.53 28.48C140.383 28.48 137.783 27.4533 135.73 25.4C133.703 23.3467 132.69 20.8133 132.69 17.8C132.69 14.7867 133.703 12.2533 135.73 10.2C137.783 8.12 140.383 7.08 143.53 7.08C147.796 7.08 150.996 8.86667 153.13 12.44L148.77 15.16C147.57 13.16 145.89 12.16 143.73 12.16C142.103 12.16 140.783 12.68 139.77 13.72C138.783 14.76 138.29 16.12 138.29 17.8C138.29 19.48 138.783 20.8533 139.77 21.92C140.783 22.96 142.103 23.48 143.73 23.48C145.89 23.48 147.57 22.48 148.77 20.48ZM174.147 23.6C171.987 26.8533 168.747 28.48 164.427 28.48C161.201 28.48 158.587 27.48 156.587 25.48C154.614 23.4533 153.627 20.8933 153.627 17.8C153.627 14.7867 154.641 12.2533 156.667 10.2C158.694 8.12 161.294 7.08 164.467 7.08C167.641 7.08 170.161 8.06667 172.027 10.04C173.921 11.9867 174.867 14.48 174.867 17.52C174.867 17.76 174.854 18.04 174.827 18.36C174.827 18.6533 174.814 18.9067 174.787 19.12C174.787 19.3333 174.787 19.4533 174.787 19.48H159.107C159.401 20.8133 160.027 21.8667 160.987 22.64C161.947 23.3867 163.134 23.76 164.547 23.76C166.894 23.76 168.707 22.8533 169.987 21.04L174.147 23.6ZM164.427 11.64C161.787 11.64 160.081 12.88 159.307 15.36H169.267C168.974 14.16 168.387 13.24 167.507 12.6C166.627 11.96 165.601 11.64 164.427 11.64Z" fill="white"/>
</svg>
